<svg width="42" height="40" viewBox="0 0 42 40" fill="none" xmlns="http://www.w3.org/2000/svg">
<path d="M38.5536 0H3.18722C1.56669 0 0.25 1.27441 0.25 2.83887V36.5361C0.25 38.1006 1.56669 39.375 3.18722 39.375H38.5536C40.1741 39.375 41.5 38.1006 41.5 36.5361V2.83887C41.5 1.27441 40.1741 0 38.5536 0ZM12.7171 33.75H6.60324V14.959H12.7263V33.75H12.7171ZM9.66016 12.3926C7.69894 12.3926 6.11523 10.8721 6.11523 9.00879C6.11523 7.14551 7.69894 5.625 9.66016 5.625C11.6122 5.625 13.2051 7.14551 13.2051 9.00879C13.2051 10.8809 11.6214 12.3926 9.66016 12.3926ZM35.6348 33.75H29.5209V24.6094C29.5209 22.4297 29.4749 19.626 26.3443 19.626C23.1585 19.626 22.6705 21.999 22.6705 24.4512V33.75H16.5566V14.959H22.4219V17.5254H22.5047C23.3242 16.0488 25.3223 14.4932 28.2963 14.4932C34.4838 14.4932 35.6348 18.3867 35.6348 23.4492V33.75Z" fill="#0e76a8"/>
</svg>
