<svg width="42" height="45" viewBox="0 0 42 45" fill="none" xmlns="http://www.w3.org/2000/svg">
<path d="M28.1164 21.375C28.1164 22.7475 27.0557 23.8725 25.7121 23.8725C24.3921 23.8725 23.3079 22.7475 23.3079 21.375C23.3079 20.0025 24.3686 18.8775 25.7121 18.8775C27.0557 18.8775 28.1164 20.0025 28.1164 21.375ZM17.1086 18.8775C15.765 18.8775 14.7043 20.0025 14.7043 21.375C14.7043 22.7475 15.7886 23.8725 17.1086 23.8725C18.4521 23.8725 19.5129 22.7475 19.5129 21.375C19.5364 20.0025 18.4521 18.8775 17.1086 18.8775ZM42 4.635V45C36.0617 39.9908 37.9608 41.6489 31.0629 35.5275L32.3121 39.69H5.58214C2.91857 39.69 0.75 37.62 0.75 35.055V4.635C0.75 2.07 2.91857 0 5.58214 0H37.1679C39.8314 0 42 2.07 42 4.635ZM35.2821 25.965C35.2821 18.72 31.8879 12.8475 31.8879 12.8475C28.4936 10.4175 25.2643 10.485 25.2643 10.485L24.9343 10.845C28.9414 12.015 30.8036 13.7025 30.8036 13.7025C25.2043 10.7732 18.6271 10.7727 13.1957 13.05C12.3236 13.4325 11.805 13.7025 11.805 13.7025C11.805 13.7025 13.7614 11.925 18.0043 10.755L17.7686 10.485C17.7686 10.485 14.5393 10.4175 11.145 12.8475C11.145 12.8475 7.75071 18.72 7.75071 25.965C7.75071 25.965 9.73071 29.2275 14.94 29.385C14.94 29.385 15.8121 28.3725 16.5193 27.5175C13.5257 26.6625 12.3943 24.8625 12.3943 24.8625C12.741 25.0942 13.3128 25.3945 13.3607 25.425C17.3393 27.5518 22.9907 28.2486 28.0693 26.2125C28.8943 25.92 29.8136 25.4925 30.78 24.885C30.78 24.885 29.6014 26.73 26.5136 27.5625C27.2207 28.4175 28.0693 29.385 28.0693 29.385C33.2786 29.2275 35.2821 25.965 35.2821 25.965Z" fill="#7289d9"/>
</svg>
