<svg width="42" height="43" viewBox="0 0 42 43" fill="none" xmlns="http://www.w3.org/2000/svg">
<path d="M13.7971 34.2246C13.7971 34.4004 13.6058 34.541 13.3647 34.541C13.0902 34.5674 12.8989 34.4268 12.8989 34.2246C12.8989 34.0488 13.0902 33.9082 13.3314 33.9082C13.5809 33.8818 13.7971 34.0225 13.7971 34.2246ZM11.2107 33.8291C11.1525 34.0049 11.3188 34.207 11.5683 34.2598C11.7845 34.3477 12.034 34.2598 12.0839 34.084C12.1338 33.9082 11.9758 33.7061 11.7263 33.627C11.5101 33.5654 11.2689 33.6533 11.2107 33.8291ZM14.8866 33.6797C14.6454 33.7412 14.4791 33.9082 14.504 34.1104C14.529 34.2861 14.7452 34.4004 14.9947 34.3389C15.2359 34.2773 15.4022 34.1104 15.3773 33.9346C15.3523 33.7676 15.1278 33.6533 14.8866 33.6797ZM20.3589 0C8.82384 0 0 9.25488 0 21.4453C0 31.1924 5.80494 39.5332 14.0965 42.4688C15.161 42.6709 15.5353 41.9766 15.5353 41.4053C15.5353 40.8604 15.5103 37.8545 15.5103 36.0088C15.5103 36.0088 9.68876 37.3271 8.46623 33.3896C8.46623 33.3896 7.51815 30.832 6.15423 30.1728C6.15423 30.1728 4.24975 28.793 6.2873 28.8193C6.2873 28.8193 8.35812 28.9951 9.49748 31.0869C11.3188 34.4795 14.371 33.5039 15.5602 32.9238C15.7515 31.5176 16.2921 30.542 16.8909 29.9619C12.2419 29.417 7.55141 28.7051 7.55141 20.25C7.55141 17.833 8.18347 16.6201 9.51411 15.0732C9.29788 14.502 8.59098 12.1465 9.73034 9.10547C11.4685 8.53418 15.4688 11.4785 15.4688 11.4785C17.1321 10.9863 18.9201 10.7314 20.6915 10.7314C22.463 10.7314 24.251 10.9863 25.9143 11.4785C25.9143 11.4785 29.9146 8.52539 31.6527 9.10547C32.7921 12.1553 32.0852 14.502 31.869 15.0732C33.1996 16.6289 34.0146 17.8418 34.0146 20.25C34.0146 28.7314 29.1162 29.4082 24.4672 29.9619C25.2324 30.6562 25.8811 31.9746 25.8811 34.04C25.8811 37.002 25.8561 40.667 25.8561 41.3877C25.8561 41.959 26.2387 42.6533 27.2949 42.4512C35.6114 39.5332 41.25 31.1924 41.25 21.4453C41.25 9.25488 31.8939 0 20.3589 0ZM8.08367 30.3135C7.97555 30.4014 8.0005 30.6035 8.14189 30.7705C8.27495 30.9111 8.46623 30.9727 8.57434 30.8584C8.68246 30.7705 8.65751 30.5684 8.51613 30.4014C8.38307 30.2607 8.19178 30.1992 8.08367 30.3135ZM7.18548 29.6016C7.12727 29.7158 7.21043 29.8564 7.37676 29.9443C7.50983 30.0322 7.67616 30.0059 7.73438 29.8828C7.79259 29.7686 7.70943 29.6279 7.54309 29.54C7.37676 29.4873 7.2437 29.5137 7.18548 29.6016ZM9.88004 32.7305C9.74698 32.8447 9.79688 33.1084 9.98816 33.2754C10.1794 33.4775 10.4206 33.5039 10.5287 33.3633C10.6368 33.249 10.5869 32.9854 10.4206 32.8184C10.2377 32.6162 9.98816 32.5898 9.88004 32.7305ZM8.93196 31.4385C8.79889 31.5264 8.79889 31.7549 8.93196 31.957C9.06502 32.1592 9.28957 32.2471 9.39768 32.1592C9.53075 32.0449 9.53075 31.8164 9.39768 31.6143C9.28125 31.4121 9.06502 31.3242 8.93196 31.4385Z" fill="#24292e"/>
</svg>
