<svg width="42" height="38" viewBox="0 0 42 38" fill="none" xmlns="http://www.w3.org/2000/svg">
<path d="M37.5098 9.98346C37.536 10.3832 37.536 10.783 37.536 11.1827C37.536 23.3749 29.0295 37.4232 13.4822 37.4232C8.6924 37.4232 4.24287 35.9098 0.5 33.283C1.18054 33.3686 1.83482 33.3972 2.54155 33.3972C6.49374 33.3972 10.132 31.941 13.0373 29.4569C9.32057 29.3712 6.20587 26.7157 5.13273 23.0609C5.65625 23.1465 6.17969 23.2036 6.72939 23.2036C7.48841 23.2036 8.24751 23.0894 8.95416 22.8896C5.08044 22.0329 2.17506 18.321 2.17506 13.8382V13.724C3.30049 14.4093 4.60929 14.8376 5.9964 14.8946C3.71927 13.2385 2.22742 10.4117 2.22742 7.21376C2.22742 5.5006 2.64613 3.93017 3.37904 2.5596C7.5407 8.15603 13.7963 11.8108 20.8108 12.2106C20.68 11.5253 20.6014 10.8116 20.6014 10.0977C20.6014 5.01518 24.3705 0.875 29.0556 0.875C31.4897 0.875 33.6883 1.98857 35.2326 3.78743C37.1432 3.38771 38.9754 2.61673 40.5982 1.56028C39.97 3.70183 38.6351 5.50068 36.8815 6.64273C38.5829 6.44296 40.2318 5.92889 41.7498 5.21513C40.5984 7.04246 39.1587 8.66993 37.5098 9.98346Z" fill="#1DA1F2"/>
</svg>
