<?xml version="1.0" encoding="UTF-8"?>
<svg width="53px" height="75px" viewBox="0 0 53 75" version="1.1" xmlns="http://www.w3.org/2000/svg" xmlns:xlink="http://www.w3.org/1999/xlink">
    <title>Design #4 SVG</title>
    <g id="Design-#4-SVG" stroke="none" stroke-width="1" fill="none" fill-rule="evenodd">
        <g id="logo" transform="translate(-1.446945, -11.128617)" fill="#000000" fill-rule="nonzero">
            <g id="letters" transform="translate(38.455203, 45.834652) rotate(-20.000000) translate(-38.455203, -45.834652) translate(11.455203, 7.834652)">
                <path d="M11.0286418,70.0230854 L11.0286418,6.11690966 L17.7250582,3.46359987 L25.4516663,3.46359987 C28.1526445,3.46359987 30.5320419,3.81729408 32.58993,4.52469311 C34.6478181,5.23209215 36.5127512,6.4860989 38.1847853,8.28675099 C39.8568194,10.0874031 41.0143641,12.1934913 41.6574541,14.605079 C42.3005442,17.0166666 42.6220844,20.2802995 42.6220844,24.3960758 C42.6220844,27.4829079 42.4452372,30.0873835 42.0915377,32.2095806 C41.7378382,34.3317777 40.9822188,36.3253269 39.8246567,38.190288 C38.4741676,40.4411031 36.6735426,42.1934971 34.4227274,43.4475227 C32.1719123,44.7015483 29.2137426,45.3285516 25.5481294,45.3285516 L20.1927922,45.3285516 L20.1927922,72.1452719 L11.0286418,70.0230854 Z M20.1927922,12.72405 L20.1927922,36.0681015 L25.2587403,36.0681015 C27.2523194,36.0681015 28.7957123,35.7787153 29.8889654,35.1999343 C30.9822184,34.6211532 31.7860689,33.8173028 32.3005409,32.7883587 C32.815013,31.8237237 33.1204762,30.6340249 33.2169397,29.2192269 C33.3134027,27.8044288 33.3616342,26.2288819 33.3616342,24.4925388 C33.3616342,22.8848137 33.3294802,21.3574978 33.2651712,19.9105452 C33.2008622,18.4635926 32.911476,17.1935089 32.397004,16.1002558 C31.8825319,15.0070028 31.1108355,14.1709983 30.0818914,13.5922172 C29.0529474,13.0134362 27.5738625,12.72405 25.6445924,12.72405 L20.1927922,12.72405 Z" id="P" transform="translate(26.825363, 37.804436) rotate(20.000000) translate(-26.825363, -37.804436) "></path>
                <polygon id="Z" points="0.815490245 71.1714449 0.815490245 62.4415414 19.3363906 11.7019916 0.815490245 11.7019916 0.815490245 2.4415414 30.0437861 2.4415414 30.0437861 10.2550462 11.1370337 61.8627633 29.5282449 61.7678546 29.5148566 71.1232134"></polygon>
            </g>
        </g>
    </g>
</svg>